<svg width="22" height="22" viewBox="0 0 22 22" fill="none" xmlns="http://www.w3.org/2000/svg">
<path d="M1 5C1 3.93913 1.42143 2.92172 2.17157 2.17157C2.92172 1.42143 3.93913 1 5 1H17C18.0609 1 19.0783 1.42143 19.8284 2.17157C20.5786 2.92172 21 3.93913 21 5V17C21 18.0609 20.5786 19.0783 19.8284 19.8284C19.0783 20.5786 18.0609 21 17 21H5C3.93913 21 2.92172 20.5786 2.17157 19.8284C1.42143 19.0783 1 18.0609 1 17V5Z" stroke="white" stroke-width="2" stroke-linecap="round" stroke-linejoin="round"/>
<path d="M7.5 10C8.88071 10 10 8.88071 10 7.5C10 6.11929 8.88071 5 7.5 5C6.11929 5 5 6.11929 5 7.5C5 8.88071 6.11929 10 7.5 10Z" stroke="white" stroke-width="2" stroke-linecap="round" stroke-linejoin="round"/>
<path d="M13.526 11.6208L5 20.9998H17.133C18.1586 20.9998 19.1422 20.5924 19.8674 19.8672C20.5926 19.142 21 18.1584 21 17.1328V16.9998C21 16.5338 20.825 16.3548 20.51 16.0098L16.48 11.6148C16.2922 11.4099 16.0637 11.2464 15.8092 11.1348C15.5546 11.0231 15.2796 10.9657 15.0017 10.9663C14.7237 10.9669 14.449 11.0254 14.1949 11.1381C13.9408 11.2507 13.713 11.4152 13.526 11.6208V11.6208Z" stroke="white" stroke-width="2" stroke-linecap="round" stroke-linejoin="round"/>
</svg>
